<?xml version="1.0" encoding="UTF-8" standalone="no"?>
<!DOCTYPE svg PUBLIC "-//W3C//DTD SVG 1.1//EN"
 "http://www.w3.org/Graphics/SVG/1.1/DTD/svg11.dtd">
<!-- Generated by graphviz version 2.40.1 (20161225.0304)
 -->
<!-- Title: snakemake_dag Pages: 1 -->
<svg width="278pt" height="188pt"
 viewBox="0.00 0.00 278.00 188.00" xmlns="http://www.w3.org/2000/svg" xmlns:xlink="http://www.w3.org/1999/xlink">
<g id="graph0" class="graph" transform="scale(1 1) rotate(0) translate(4 184)">
<title>snakemake_dag</title>
<polygon fill="#ffffff" stroke="transparent" points="-4,4 -4,-184 274,-184 274,4 -4,4"/>
<!-- 0 -->
<g id="node1" class="node">
<title>0</title>
<path fill="none" stroke="#d85656" stroke-width="2" d="M150,-36C150,-36 120,-36 120,-36 114,-36 108,-30 108,-24 108,-24 108,-12 108,-12 108,-6 114,0 120,0 120,0 150,0 150,0 156,0 162,-6 162,-12 162,-12 162,-24 162,-24 162,-30 156,-36 150,-36"/>
<text text-anchor="middle" x="135" y="-15.5" font-family="sans" font-size="10.00" fill="#000000">all</text>
</g>
<!-- 1 -->
<g id="node2" class="node">
<title>1</title>
<path fill="none" stroke="#afd856" stroke-width="2" d="M150,-108C150,-108 120,-108 120,-108 114,-108 108,-102 108,-96 108,-96 108,-84 108,-84 108,-78 114,-72 120,-72 120,-72 150,-72 150,-72 156,-72 162,-78 162,-84 162,-84 162,-96 162,-96 162,-102 156,-108 150,-108"/>
<text text-anchor="middle" x="135" y="-87.5" font-family="sans" font-size="10.00" fill="#000000">cat</text>
</g>
<!-- 1&#45;&gt;0 -->
<g id="edge1" class="edge">
<title>1&#45;&gt;0</title>
<path fill="none" stroke="#c0c0c0" stroke-width="2" d="M135,-71.8314C135,-64.131 135,-54.9743 135,-46.4166"/>
<polygon fill="#c0c0c0" stroke="#c0c0c0" stroke-width="2" points="138.5001,-46.4132 135,-36.4133 131.5001,-46.4133 138.5001,-46.4132"/>
</g>
<!-- 2 -->
<g id="node3" class="node">
<title>2</title>
<path fill="none" stroke="#56d8a9" stroke-width="2" d="M66,-180C66,-180 12,-180 12,-180 6,-180 0,-174 0,-168 0,-168 0,-156 0,-156 0,-150 6,-144 12,-144 12,-144 66,-144 66,-144 72,-144 78,-150 78,-156 78,-156 78,-168 78,-168 78,-174 72,-180 66,-180"/>
<text text-anchor="middle" x="39" y="-165" font-family="sans" font-size="10.00" fill="#000000">word_counts</text>
<text text-anchor="middle" x="39" y="-154" font-family="sans" font-size="10.00" fill="#000000">file: A</text>
</g>
<!-- 2&#45;&gt;1 -->
<g id="edge2" class="edge">
<title>2&#45;&gt;1</title>
<path fill="none" stroke="#c0c0c0" stroke-width="2" d="M63.2249,-143.8314C75.1628,-134.8779 89.7256,-123.9558 102.606,-114.2955"/>
<polygon fill="#c0c0c0" stroke="#c0c0c0" stroke-width="2" points="104.8829,-116.9629 110.7829,-108.1628 100.6829,-111.3629 104.8829,-116.9629"/>
</g>
<!-- 3 -->
<g id="node4" class="node">
<title>3</title>
<path fill="none" stroke="#56d8a9" stroke-width="2" d="M162,-180C162,-180 108,-180 108,-180 102,-180 96,-174 96,-168 96,-168 96,-156 96,-156 96,-150 102,-144 108,-144 108,-144 162,-144 162,-144 168,-144 174,-150 174,-156 174,-156 174,-168 174,-168 174,-174 168,-180 162,-180"/>
<text text-anchor="middle" x="135" y="-165" font-family="sans" font-size="10.00" fill="#000000">word_counts</text>
<text text-anchor="middle" x="135" y="-154" font-family="sans" font-size="10.00" fill="#000000">file: text</text>
</g>
<!-- 3&#45;&gt;1 -->
<g id="edge3" class="edge">
<title>3&#45;&gt;1</title>
<path fill="none" stroke="#c0c0c0" stroke-width="2" d="M135,-143.8314C135,-136.131 135,-126.9743 135,-118.4166"/>
<polygon fill="#c0c0c0" stroke="#c0c0c0" stroke-width="2" points="138.5001,-118.4132 135,-108.4133 131.5001,-118.4133 138.5001,-118.4132"/>
</g>
<!-- 4 -->
<g id="node5" class="node">
<title>4</title>
<path fill="none" stroke="#56d8a9" stroke-width="2" d="M258,-180C258,-180 204,-180 204,-180 198,-180 192,-174 192,-168 192,-168 192,-156 192,-156 192,-150 198,-144 204,-144 204,-144 258,-144 258,-144 264,-144 270,-150 270,-156 270,-156 270,-168 270,-168 270,-174 264,-180 258,-180"/>
<text text-anchor="middle" x="231" y="-165" font-family="sans" font-size="10.00" fill="#000000">word_counts</text>
<text text-anchor="middle" x="231" y="-154" font-family="sans" font-size="10.00" fill="#000000">file: B</text>
</g>
<!-- 4&#45;&gt;1 -->
<g id="edge4" class="edge">
<title>4&#45;&gt;1</title>
<path fill="none" stroke="#c0c0c0" stroke-width="2" d="M206.7751,-143.8314C194.8372,-134.8779 180.2744,-123.9558 167.394,-114.2955"/>
<polygon fill="#c0c0c0" stroke="#c0c0c0" stroke-width="2" points="169.3171,-111.3629 159.2171,-108.1628 165.1171,-116.9629 169.3171,-111.3629"/>
</g>
</g>
</svg>
