<?xml version="1.0" encoding="UTF-8" standalone="no"?>
<!DOCTYPE svg PUBLIC "-//W3C//DTD SVG 1.1//EN"
 "http://www.w3.org/Graphics/SVG/1.1/DTD/svg11.dtd">
<!-- Generated by graphviz version 2.40.1 (20161225.0304)
 -->
<!-- Title: snakemake_dag Pages: 1 -->
<svg width="278pt" height="188pt"
 viewBox="0.00 0.00 278.00 188.00" xmlns="http://www.w3.org/2000/svg" xmlns:xlink="http://www.w3.org/1999/xlink">
<g id="graph0" class="graph" transform="scale(1 1) rotate(0) translate(4 184)">
<title>snakemake_dag</title>
<polygon fill="#ffffff" stroke="transparent" points="-4,4 -4,-184 274,-184 274,4 -4,4"/>
<!-- 0 -->
<g id="node1" class="node">
<title>0</title>
<path fill="none" stroke="#56d8a9" stroke-width="2" d="M166,-36C166,-36 136,-36 136,-36 130,-36 124,-30 124,-24 124,-24 124,-12 124,-12 124,-6 130,0 136,0 136,0 166,0 166,0 172,0 178,-6 178,-12 178,-12 178,-24 178,-24 178,-30 172,-36 166,-36"/>
<text text-anchor="middle" x="151" y="-15.5" font-family="sans" font-size="10.00" fill="#000000">all</text>
</g>
<!-- 1 -->
<g id="node2" class="node">
<title>1</title>
<path fill="none" stroke="#d85656" stroke-width="2" d="M139,-108C139,-108 109,-108 109,-108 103,-108 97,-102 97,-96 97,-96 97,-84 97,-84 97,-78 103,-72 109,-72 109,-72 139,-72 139,-72 145,-72 151,-78 151,-84 151,-84 151,-96 151,-96 151,-102 145,-108 139,-108"/>
<text text-anchor="middle" x="124" y="-87.5" font-family="sans" font-size="10.00" fill="#000000">cat</text>
</g>
<!-- 1&#45;&gt;0 -->
<g id="edge1" class="edge">
<title>1&#45;&gt;0</title>
<path fill="none" stroke="#c0c0c0" stroke-width="2" d="M130.8132,-71.8314C133.7644,-63.9617 137.2858,-54.5712 140.555,-45.8533"/>
<polygon fill="#c0c0c0" stroke="#c0c0c0" stroke-width="2" points="143.8609,-47.0055 144.095,-36.4133 137.3066,-44.5476 143.8609,-47.0055"/>
</g>
<!-- 2 -->
<g id="node3" class="node">
<title>2</title>
<path fill="none" stroke="#afd856" stroke-width="2" d="M66,-180C66,-180 12,-180 12,-180 6,-180 0,-174 0,-168 0,-168 0,-156 0,-156 0,-150 6,-144 12,-144 12,-144 66,-144 66,-144 72,-144 78,-150 78,-156 78,-156 78,-168 78,-168 78,-174 72,-180 66,-180"/>
<text text-anchor="middle" x="39" y="-165" font-family="sans" font-size="10.00" fill="#000000">word_counts</text>
<text text-anchor="middle" x="39" y="-154" font-family="sans" font-size="10.00" fill="#000000">file: A</text>
</g>
<!-- 2&#45;&gt;0 -->
<g id="edge2" class="edge">
<title>2&#45;&gt;0</title>
<path fill="none" stroke="#c0c0c0" stroke-width="2" d="M46.479,-143.9218C54.8805,-124.8651 69.7574,-94.542 88,-72 96.5808,-61.3969 107.4328,-51.2499 117.7019,-42.6721"/>
<polygon fill="#c0c0c0" stroke="#c0c0c0" stroke-width="2" points="120.1877,-45.1629 125.7581,-36.1506 115.7834,-39.7221 120.1877,-45.1629"/>
</g>
<!-- 2&#45;&gt;1 -->
<g id="edge5" class="edge">
<title>2&#45;&gt;1</title>
<path fill="none" stroke="#c0c0c0" stroke-width="2" d="M60.4491,-143.8314C70.8178,-135.0485 83.4229,-124.3712 94.6646,-114.8489"/>
<polygon fill="#c0c0c0" stroke="#c0c0c0" stroke-width="2" points="97.1895,-117.297 102.5578,-108.1628 92.6651,-111.9556 97.1895,-117.297"/>
</g>
<!-- 3 -->
<g id="node4" class="node">
<title>3</title>
<path fill="none" stroke="#afd856" stroke-width="2" d="M162,-180C162,-180 108,-180 108,-180 102,-180 96,-174 96,-168 96,-168 96,-156 96,-156 96,-150 102,-144 108,-144 108,-144 162,-144 162,-144 168,-144 174,-150 174,-156 174,-156 174,-168 174,-168 174,-174 168,-180 162,-180"/>
<text text-anchor="middle" x="135" y="-165" font-family="sans" font-size="10.00" fill="#000000">word_counts</text>
<text text-anchor="middle" x="135" y="-154" font-family="sans" font-size="10.00" fill="#000000">file: text</text>
</g>
<!-- 3&#45;&gt;0 -->
<g id="edge3" class="edge">
<title>3&#45;&gt;0</title>
<path fill="none" stroke="#c0c0c0" stroke-width="2" d="M145.888,-143.7133C151.2929,-133.5709 157.2445,-120.5105 160,-108 164.5176,-87.4889 161.858,-63.8435 158.2876,-45.9376"/>
<polygon fill="#c0c0c0" stroke="#c0c0c0" stroke-width="2" points="161.6957,-45.1389 156.1276,-36.1252 154.8594,-46.6438 161.6957,-45.1389"/>
</g>
<!-- 3&#45;&gt;1 -->
<g id="edge6" class="edge">
<title>3&#45;&gt;1</title>
<path fill="none" stroke="#c0c0c0" stroke-width="2" d="M132.2242,-143.8314C131.0478,-136.131 129.6489,-126.9743 128.3414,-118.4166"/>
<polygon fill="#c0c0c0" stroke="#c0c0c0" stroke-width="2" points="131.7833,-117.7699 126.8131,-108.4133 124.8636,-118.8272 131.7833,-117.7699"/>
</g>
<!-- 4 -->
<g id="node5" class="node">
<title>4</title>
<path fill="none" stroke="#afd856" stroke-width="2" d="M258,-180C258,-180 204,-180 204,-180 198,-180 192,-174 192,-168 192,-168 192,-156 192,-156 192,-150 198,-144 204,-144 204,-144 258,-144 258,-144 264,-144 270,-150 270,-156 270,-156 270,-168 270,-168 270,-174 264,-180 258,-180"/>
<text text-anchor="middle" x="231" y="-165" font-family="sans" font-size="10.00" fill="#000000">word_counts</text>
<text text-anchor="middle" x="231" y="-154" font-family="sans" font-size="10.00" fill="#000000">file: B</text>
</g>
<!-- 4&#45;&gt;0 -->
<g id="edge4" class="edge">
<title>4&#45;&gt;0</title>
<path fill="none" stroke="#c0c0c0" stroke-width="2" d="M220.8679,-143.7623C206.9824,-118.7682 181.9402,-73.6924 165.9116,-44.8409"/>
<polygon fill="#c0c0c0" stroke="#c0c0c0" stroke-width="2" points="168.9658,-43.1314 161.0498,-36.0896 162.8467,-46.531 168.9658,-43.1314"/>
</g>
<!-- 4&#45;&gt;1 -->
<g id="edge7" class="edge">
<title>4&#45;&gt;1</title>
<path fill="none" stroke="#c0c0c0" stroke-width="2" d="M203.9994,-143.8314C190.5669,-134.7927 174.1527,-123.7476 159.6961,-114.0198"/>
<polygon fill="#c0c0c0" stroke="#c0c0c0" stroke-width="2" points="161.2425,-110.8418 150.992,-108.1628 157.3346,-116.6494 161.2425,-110.8418"/>
</g>
</g>
</svg>
